<svg xmlns="http://www.w3.org/2000/svg" viewBox="0 0 24 24" width="24" height="24">
  <!-- Studio: a puzzle piece with a spark on it. Monochrome, for Rancher's rail filter. -->
  <path fill="#000" fill-rule="evenodd" d="M9 2.5a2.5 2.5 0 0 1 5 0V4h4a2 2 0 0 1 2 2v4h1.5a2.5 2.5 0 0 1 0 5H20v4a2 2 0 0 1-2 2h-4v-1.5a2.5 2.5 0 0 0-5 0V21H5a2 2 0 0 1-2-2v-4h1.5a2.5 2.5 0 0 0 0-5H3V6a2 2 0 0 1 2-2h4zM11 6H5v2.2a4.5 4.5 0 0 1 0 8.6V19h2.2a4.5 4.5 0 0 1 8.6 0H18v-2.2a4.5 4.5 0 0 1 0-8.6V6h-4V3.8a.5.5 0 0 0-1 0zm3.2 4.3 1 2.5 2.5 1-2.5 1-1 2.5-1-2.5-2.5-1 2.5-1z"/>
</svg>
